<svg width="682" height="686" viewBox="0 0 682 686" fill="none" xmlns="http://www.w3.org/2000/svg">
<rect width="682" height="686" fill="white"/>
<mask id="mask0_23_3715" style="mask-type:luminance" maskUnits="userSpaceOnUse" x="49" y="11" width="263" height="241">
<path d="M49.298 11H311.234V251.043H49.298V11Z" fill="white"/>
</mask>
<g mask="url(#mask0_23_3715)">
<mask id="mask1_23_3715" style="mask-type:luminance" maskUnits="userSpaceOnUse" x="53" y="11" width="256" height="239">
<path d="M299.961 11.2594C318.174 77.4519 120.274 170.031 53.1842 203.595L53.5777 211.67C54.2704 225.728 58.9298 238.23 66.5486 249.642C269.911 153.967 334.561 90.4206 299.961 11.2594Z" fill="white"/>
</mask>
<g mask="url(#mask1_23_3715)">
<path d="M53.1842 11.2594V249.642H334.561V11.2594H53.1842Z" fill="#526D82"/>
</g>
</g>
<mask id="mask2_23_3715" style="mask-type:luminance" maskUnits="userSpaceOnUse" x="69" y="56" width="263" height="235">
<path d="M69.4465 56.2695H331.383V290.883H69.4465V56.2695Z" fill="white"/>
</mask>
<g mask="url(#mask2_23_3715)">
<mask id="mask3_23_3715" style="mask-type:luminance" maskUnits="userSpaceOnUse" x="72" y="59" width="256" height="232">
<path fill-rule="evenodd" clip-rule="evenodd" d="M316.761 69.0305C303.334 145.927 164.731 217.255 72.7701 258.564L72.7229 258.582C84.0724 270.098 98.5387 280.559 115.02 290.571C301.413 200.689 350.81 135.465 318.272 59.3472C317.942 62.6326 317.438 65.8662 316.761 69.0305Z" fill="white"/>
</mask>
<g mask="url(#mask3_23_3715)">
<path d="M72.7229 59.3472V290.571H350.81V59.3472H72.7229Z" fill="#526D82"/>
</g>
</g>
<mask id="mask4_23_3715" style="mask-type:luminance" maskUnits="userSpaceOnUse" x="33" y="211" width="343" height="399">
<path d="M33.1777 211.203H375.71V609.603H33.1777V211.203Z" fill="white"/>
</mask>
<g mask="url(#mask4_23_3715)">
<mask id="mask5_23_3715" style="mask-type:luminance" maskUnits="userSpaceOnUse" x="33" y="212" width="340" height="397">
<path fill-rule="evenodd" clip-rule="evenodd" d="M189.884 405.492C71.6188 351.058 6.79583 288.964 43.6621 212.258C51.1078 363.128 436.44 344.038 363.007 608.894C352.397 491.311 267.488 449.569 189.884 405.492Z" fill="white"/>
</mask>
<g mask="url(#mask5_23_3715)">
<path d="M6.79626 212.258V608.894H436.425V212.258H6.79626Z" fill="#27374D"/>
</g>
</g>
<mask id="mask6_23_3715" style="mask-type:luminance" maskUnits="userSpaceOnUse" x="9" y="264" width="343" height="411">
<path d="M9 264.323H351.532V675H9V264.323Z" fill="white"/>
</mask>
<g mask="url(#mask6_23_3715)">
<mask id="mask7_23_3715" style="mask-type:luminance" maskUnits="userSpaceOnUse" x="12" y="264" width="338" height="411">
<path fill-rule="evenodd" clip-rule="evenodd" d="M24.9956 264.409C42.0592 430.651 423.236 418.098 337.115 674.775C316.305 444.277 -59.2364 439.66 24.9956 264.409Z" fill="white"/>
</mask>
<g mask="url(#mask7_23_3715)">
<path d="M-59.2388 264.409V674.775H423.234V264.409H-59.2388Z" fill="#27374D"/>
</g>
</g>
<mask id="mask8_23_3715" style="mask-type:luminance" maskUnits="userSpaceOnUse" x="32" y="482" width="151" height="187">
<path d="M32.248 482.44H182.279V668.36H32.248V482.44Z" fill="white"/>
</mask>
<g mask="url(#mask8_23_3715)">
<path d="M139.177 652.454C153.659 652.454 167.118 647.63 178.294 639.364C162.867 657.226 141.066 668.362 116.887 668.362C70.1666 668.362 32.2771 626.741 32.2771 575.402C32.2771 524.063 70.1666 482.46 116.887 482.46C141.066 482.46 162.883 493.595 178.294 511.475C167.133 503.192 153.659 498.368 139.177 498.368C100.437 498.368 69.0489 532.865 69.0489 575.42C69.0489 617.957 100.437 652.454 139.177 652.454Z" fill="#27374D"/>
</g>
<path d="M99.1206 564.056C92.4935 572.581 88.6841 582.697 87.5979 593.055C85.9451 575.815 90.5101 557.883 101.561 543.67C122.937 516.176 160.559 512.942 185.588 536.424C210.601 559.924 213.56 601.251 192.168 628.745C181.102 642.958 165.691 650.705 149.934 651.587C159.079 648.803 167.596 643.097 174.223 634.572C191.947 611.781 189.492 577.527 168.76 558.056C148.029 538.586 116.845 541.266 99.1206 564.056Z" fill="#526D82"/>
<path d="M99.9518 628.848C107.35 639.604 117.189 647.143 127.987 651.224C109.113 648.889 91.1209 638.376 78.7797 620.41C54.9158 585.688 61.1808 536.286 92.7895 510.072C124.398 483.841 169.355 490.74 193.219 525.462C205.576 543.428 209.858 565.336 206.725 585.913C206.112 573.394 202.208 560.91 194.809 550.154C175.038 521.363 137.763 515.657 111.569 537.393C85.3753 559.111 80.1649 600.058 99.9518 628.848Z" fill="#27374D"/>
<path d="M428.728 629.422H418.401V648.996H399.386V575.334H430.05C436.126 575.334 441.399 576.44 445.854 578.654C450.341 580.867 453.788 584.031 456.181 588.129C458.605 592.245 459.833 597.052 459.833 602.585C459.833 607.946 458.699 612.597 456.432 616.557C454.166 620.534 450.923 623.612 446.736 625.825L461.218 648.996H440.88L428.728 629.422ZM440.691 602.585C440.691 599.179 439.699 596.533 437.732 594.631C435.748 592.746 432.82 591.795 428.917 591.795H418.401V613.306H428.917C432.82 613.306 435.748 612.39 437.732 610.539C439.699 608.707 440.691 606.044 440.691 602.585Z" fill="#526D82"/>
<path d="M515.178 634.679H486.843L481.554 648.996H462.224L491.817 575.334H510.455L540.175 648.996H520.404L515.178 634.679ZM509.637 619.324L501.01 595.738L492.384 619.324H509.637Z" fill="#526D82"/>
<path d="M590.419 610.609H607.168V641.111C603.343 644.12 598.936 646.42 593.946 648.028C588.94 649.636 583.966 650.449 579.023 650.449C572.002 650.449 565.69 648.841 560.07 645.607C554.435 642.339 550.027 637.791 546.847 631.981C543.652 626.137 542.062 619.531 542.062 612.199C542.062 604.833 543.652 598.228 546.847 592.418C550.027 586.573 554.466 582.026 560.133 578.792C565.831 575.524 572.254 573.881 579.401 573.881C585.65 573.881 591.254 575.04 596.212 577.339C601.202 579.657 605.358 582.994 608.679 587.369L596.653 599.334C592.12 593.853 586.673 591.104 580.345 591.104C574.584 591.104 569.956 593.023 566.43 596.844C562.935 600.683 561.204 605.802 561.204 612.199C561.204 616.263 561.991 619.877 563.596 623.059C565.186 626.24 567.406 628.73 570.271 630.529C573.167 632.327 576.457 633.226 580.156 633.226C583.808 633.226 587.224 632.431 590.419 630.805V610.609Z" fill="#526D82"/>
<path d="M673 632.88V648.996H619.165V575.334H671.741V591.449H637.991V603.83H667.774V619.462H637.991V632.88H673Z" fill="#526D82"/>
</svg>
