<svg width="512" height="512" viewBox="0 0 512 512" fill="none" xmlns="http://www.w3.org/2000/svg">
<mask id="mask0_29_631" style="mask-type:luminance" maskUnits="userSpaceOnUse" x="31" y="0" width="203" height="186">
<path d="M31.073 0H233.048V185.093H31.073V0Z" fill="white"/>
</mask>
<g mask="url(#mask0_29_631)">
<mask id="mask1_29_631" style="mask-type:luminance" maskUnits="userSpaceOnUse" x="34" y="0" width="198" height="185">
<path d="M224.356 0.199997C238.399 51.24 85.8014 122.627 34.0696 148.507L34.373 154.733C34.9071 165.573 38.4999 175.213 44.3747 184.013C201.184 110.24 251.035 61.24 224.356 0.199997Z" fill="white"/>
</mask>
<g mask="url(#mask1_29_631)">
<path d="M34.0696 0.199997V184.013H251.035V0.199997H34.0696Z" fill="#526D82"/>
</g>
</g>
<mask id="mask2_29_631" style="mask-type:luminance" maskUnits="userSpaceOnUse" x="46" y="34" width="203" height="182">
<path d="M46.6094 34.9066H248.584V215.813H46.6094V34.9066Z" fill="white"/>
</mask>
<g mask="url(#mask2_29_631)">
<mask id="mask3_29_631" style="mask-type:luminance" maskUnits="userSpaceOnUse" x="49" y="37" width="197" height="179">
<path fill-rule="evenodd" clip-rule="evenodd" d="M237.31 44.7464C226.956 104.04 120.082 159.04 49.1722 190.893L49.1357 190.906C57.8872 199.786 69.0419 207.853 81.7503 215.573C225.475 146.266 263.564 95.9731 238.475 37.2798C238.22 39.8131 237.832 42.3064 237.31 44.7464Z" fill="white"/>
</mask>
<g mask="url(#mask3_29_631)">
<path d="M49.1357 37.2798V215.573H263.564V37.2798H49.1357Z" fill="#526D82"/>
</g>
</g>
<mask id="mask4_29_631" style="mask-type:luminance" maskUnits="userSpaceOnUse" x="18" y="154" width="265" height="308">
<path d="M18.6431 154.374H282.764V461.573H18.6431V154.374Z" fill="white"/>
</mask>
<g mask="url(#mask4_29_631)">
<mask id="mask5_29_631" style="mask-type:luminance" maskUnits="userSpaceOnUse" x="18" y="155" width="263" height="307">
<path fill-rule="evenodd" clip-rule="evenodd" d="M139.477 304.187C48.2843 262.214 -1.69959 214.334 26.7274 155.187C32.4686 271.52 329.593 256.8 272.969 461.027C264.788 370.36 199.316 338.174 139.477 304.187Z" fill="white"/>
</mask>
<g mask="url(#mask5_29_631)">
<path d="M-1.69922 155.187V461.027H329.581V155.187H-1.69922Z" fill="#27374D"/>
</g>
</g>
<mask id="mask6_29_631" style="mask-type:luminance" maskUnits="userSpaceOnUse" x="0" y="195" width="265" height="317">
<path d="M0 195.333H264.121V512H0V195.333Z" fill="white"/>
</mask>
<g mask="url(#mask6_29_631)">
<mask id="mask7_29_631" style="mask-type:luminance" maskUnits="userSpaceOnUse" x="2" y="195" width="261" height="317">
<path fill-rule="evenodd" clip-rule="evenodd" d="M12.334 195.4C25.4915 323.587 319.411 313.907 253.005 511.827C236.958 334.093 -52.6159 330.533 12.334 195.4Z" fill="white"/>
</mask>
<g mask="url(#mask7_29_631)">
<path d="M-52.6179 195.4V511.827H319.409V195.4H-52.6179Z" fill="#27374D"/>
</g>
</g>
<mask id="mask8_29_631" style="mask-type:luminance" maskUnits="userSpaceOnUse" x="17" y="363" width="117" height="144">
<path d="M17.9263 363.52H133.613V506.88H17.9263V363.52Z" fill="white"/>
</mask>
<g mask="url(#mask8_29_631)">
<path d="M100.377 494.615C111.544 494.615 121.922 490.895 130.54 484.522C118.645 498.295 101.834 506.882 83.19 506.882C47.1647 506.882 17.9487 474.788 17.9487 435.202C17.9487 395.615 47.1647 363.535 83.19 363.535C101.834 363.535 118.657 372.122 130.54 385.908C121.934 379.522 111.544 375.802 100.377 375.802C70.5059 375.802 46.3029 402.402 46.3029 435.215C46.3029 468.015 70.5059 494.615 100.377 494.615Z" fill="#27374D"/>
</g>
<path d="M69.4906 426.453C64.3806 433.026 61.4432 440.826 60.6057 448.813C59.3312 435.52 62.8512 421.693 71.372 410.733C87.8553 389.533 116.865 387.04 136.164 405.146C155.451 423.266 157.733 455.133 141.238 476.333C132.705 487.293 120.822 493.266 108.672 493.946C115.724 491.8 122.291 487.4 127.401 480.826C141.068 463.253 139.174 436.84 123.189 421.826C107.203 406.813 83.1579 408.88 69.4906 426.453Z" fill="#526D82"/>
<path d="M70.1316 476.413C75.8364 484.707 83.4226 490.52 91.7492 493.667C77.1958 491.867 63.3222 483.76 53.8061 469.907C35.405 443.133 40.2359 405.04 64.6088 384.827C88.9817 364.6 123.648 369.92 142.049 396.693C151.577 410.547 154.878 427.44 152.463 443.307C151.99 433.653 148.979 424.027 143.275 415.733C128.029 393.533 99.2868 389.133 79.0893 405.893C58.8918 422.64 54.8742 454.213 70.1316 476.413Z" fill="#27374D"/>
<path d="M323.646 476.855H315.683V491.949H301.021V435.149H324.665C329.35 435.149 333.417 436.002 336.852 437.709C340.311 439.415 342.969 441.855 344.814 445.015C346.683 448.189 347.63 451.895 347.63 456.162C347.63 460.295 346.756 463.882 345.008 466.935C343.26 470.002 340.76 472.375 337.531 474.082L348.698 491.949H333.016L323.646 476.855ZM332.87 456.162C332.87 453.535 332.106 451.495 330.588 450.029C329.059 448.575 326.801 447.842 323.791 447.842H315.683V464.429H323.791C326.801 464.429 329.059 463.722 330.588 462.295C332.106 460.882 332.87 458.829 332.87 456.162Z" fill="#526D82"/>
<path d="M390.306 480.909H368.457L364.379 491.949H349.474L372.293 435.149H386.664L409.581 491.949H394.335L390.306 480.909ZM386.033 469.069L379.381 450.882L372.73 469.069H386.033Z" fill="#526D82"/>
<path d="M448.323 462.349H461.238V485.869C458.289 488.189 454.89 489.962 451.042 491.202C447.182 492.442 443.347 493.069 439.535 493.069C434.122 493.069 429.255 491.829 424.921 489.336C420.576 486.816 417.177 483.309 414.726 478.829C412.262 474.322 411.036 469.229 411.036 463.576C411.036 457.896 412.262 452.802 414.726 448.322C417.177 443.816 420.6 440.309 424.97 437.816C429.364 435.296 434.316 434.029 439.827 434.029C444.646 434.029 448.967 434.922 452.79 436.696C456.638 438.482 459.842 441.056 462.403 444.429L453.13 453.656C449.634 449.429 445.434 447.309 440.555 447.309C436.113 447.309 432.544 448.789 429.825 451.736C427.131 454.696 425.795 458.642 425.795 463.576C425.795 466.709 426.402 469.496 427.64 471.949C428.866 474.402 430.578 476.322 432.787 477.709C435.02 479.096 437.557 479.789 440.409 479.789C443.225 479.789 445.859 479.176 448.323 477.922V462.349Z" fill="#526D82"/>
<path d="M512 479.522V491.949H470.488V435.149H511.029V447.575H485.005V457.122H507.97V469.175H485.005V479.522H512Z" fill="#526D82"/>
</svg>
