<svg width="162" height="158" viewBox="0 0 162 158" fill="none" xmlns="http://www.w3.org/2000/svg">
<g clip-path="url(#clip0_23_3131)">
<path d="M102.844 35.5336H59.1925C58.1978 35.5348 57.2441 35.9302 56.5407 36.633C55.8373 37.3358 55.4416 38.2887 55.4404 39.2826V136.218L54.9401 136.371L44.2316 139.647C43.7241 139.802 43.1759 139.749 42.7074 139.5C42.2389 139.252 41.8884 138.827 41.7328 138.32L9.8798 34.3614C9.72479 33.8544 9.77762 33.3065 10.0267 32.8383C10.2758 32.3702 10.7007 32.0199 11.2081 31.8646L27.7099 26.816L75.5492 12.185L92.0509 7.13644C92.3021 7.05921 92.566 7.03223 92.8275 7.05702C93.0891 7.08182 93.3432 7.15792 93.5753 7.28095C93.8075 7.40399 94.013 7.57155 94.1802 7.77405C94.3475 7.97655 94.4731 8.21001 94.5499 8.46107L102.692 35.0338L102.844 35.5336Z" fill="#9DB2BF"/>
<path d="M112.37 35.0341L102.557 3.00792C102.393 2.4743 102.126 1.97806 101.771 1.54754C101.416 1.11703 100.979 0.760687 100.486 0.498874C99.9929 0.23706 99.4529 0.0749061 98.897 0.0216835C98.3411 -0.031539 97.7801 0.025213 97.2461 0.188691L74.0456 7.28424L26.2088 21.9177L3.00831 29.0158C1.93054 29.3464 1.0281 30.0909 0.49909 31.0857C-0.0299219 32.0805 -0.142291 33.2443 0.186651 34.3218L33.7255 143.774C33.9927 144.644 34.5319 145.405 35.2639 145.946C35.9959 146.488 36.8823 146.78 37.7929 146.781C38.2143 146.781 38.6334 146.718 39.036 146.593L54.9399 141.73L55.4402 141.575V141.052L54.9399 141.205L38.8884 146.116C37.9371 146.406 36.9096 146.307 36.0313 145.841C35.153 145.374 34.4956 144.579 34.2033 143.629L0.667024 34.1743C0.522215 33.7037 0.471745 33.2091 0.518503 32.719C0.56526 32.2288 0.708323 31.7527 0.939508 31.3179C1.17069 30.883 1.48546 30.498 1.86577 30.1849C2.24608 29.8718 2.68448 29.6367 3.15585 29.4931L26.3564 22.3951L74.1933 7.76411L97.3938 0.666064C97.7513 0.557044 98.123 0.501457 98.4968 0.501109C99.2991 0.502908 100.08 0.761326 100.724 1.23851C101.369 1.7157 101.844 2.38657 102.079 3.15288L111.847 35.0341L112.002 35.534H112.522L112.37 35.0341Z" fill="#526D82"/>
<path d="M30.6875 31.9464C30.2054 31.9461 29.7361 31.7914 29.3484 31.505C28.9607 31.2186 28.6751 30.8156 28.5335 30.3552L25.3116 19.8401C25.225 19.5577 25.195 19.261 25.2232 18.9669C25.2514 18.6729 25.3373 18.3872 25.476 18.1264C25.6147 17.8655 25.8035 17.6345 26.0315 17.4465C26.2596 17.2585 26.5225 17.1173 26.8052 17.0309L70.8147 3.56862C71.3856 3.39455 72.0023 3.45392 72.5294 3.73369C73.0566 4.01346 73.4511 4.49078 73.6264 5.06088L76.8483 15.5761C77.0224 16.1465 76.963 16.7626 76.683 17.2893C76.403 17.816 75.9253 18.2102 75.3548 18.3855L31.3452 31.8477C31.1321 31.9131 30.9104 31.9463 30.6875 31.9464Z" fill="#27374D"/>
<path d="M47.5653 11.2355C50.3283 11.2355 52.5681 8.99757 52.5681 6.23691C52.5681 3.47624 50.3283 1.23828 47.5653 1.23828C44.8023 1.23828 42.5625 3.47624 42.5625 6.23691C42.5625 8.99757 44.8023 11.2355 47.5653 11.2355Z" fill="#27374D"/>
<path d="M47.5649 9.40222C49.3145 9.40222 50.7328 7.98508 50.7328 6.23694C50.7328 4.4888 49.3145 3.07166 47.5649 3.07166C45.8153 3.07166 44.397 4.4888 44.397 6.23694C44.397 7.98508 45.8153 9.40222 47.5649 9.40222Z" fill="white"/>
<path d="M150.744 145.503H66.1965C65.6328 145.503 65.0924 145.279 64.6938 144.881C64.2952 144.482 64.071 143.942 64.0703 143.379V42.1569C64.0709 41.5936 64.2952 41.0537 64.6938 40.6554C65.0924 40.2571 65.6328 40.0331 66.1965 40.0325H150.744C151.308 40.0331 151.848 40.2572 152.247 40.6554C152.645 41.0537 152.87 41.5937 152.87 42.1569V143.379C152.869 143.942 152.645 144.482 152.247 144.88C151.848 145.279 151.308 145.503 150.744 145.503Z" fill="#9DB2BF"/>
<path d="M111.847 35.0338H59.1923C58.065 35.0354 56.9843 35.4836 56.1872 36.28C55.3901 37.0765 54.9415 38.1563 54.9399 39.2826V141.205L55.4402 141.052V39.2826C55.4414 38.2887 55.8371 37.3359 56.5405 36.6331C57.2439 35.9303 58.1976 35.5349 59.1923 35.5337H112.002L111.847 35.0338ZM157.748 35.0338H59.1923C58.065 35.0354 56.9843 35.4836 56.1872 36.28C55.3901 37.0765 54.9415 38.1563 54.9399 39.2826V153.751C54.9415 154.878 55.3901 155.957 56.1872 156.754C56.9843 157.55 58.065 157.998 59.1923 158H157.748C158.875 157.998 159.956 157.55 160.753 156.754C161.55 155.957 161.998 154.878 162 153.751V39.2826C161.998 38.1563 161.55 37.0765 160.753 36.28C159.956 35.4836 158.875 35.0354 157.748 35.0338ZM161.5 153.751C161.499 154.745 161.103 155.698 160.399 156.401C159.696 157.104 158.742 157.499 157.748 157.5H59.1923C58.1976 157.499 57.2439 157.104 56.5405 156.401C55.8371 155.698 55.4414 154.745 55.4402 153.751V39.2826C55.4414 38.2887 55.8371 37.3359 56.5405 36.6331C57.2439 35.9303 58.1976 35.5349 59.1923 35.5337H157.748C158.742 35.5349 159.696 35.9303 160.399 36.6331C161.103 37.3359 161.499 38.2887 161.5 39.2826V153.751Z" fill="#526D82"/>
<path d="M131.483 46.0308H85.4573C84.8605 46.0301 84.2882 45.7929 83.8662 45.3712C83.4441 44.9495 83.2067 44.3778 83.2061 43.7814V32.7844C83.2067 32.188 83.4441 31.6163 83.8662 31.1946C84.2882 30.7729 84.8605 30.5357 85.4573 30.535H131.483C132.08 30.5357 132.652 30.7729 133.074 31.1946C133.496 31.6163 133.734 32.188 133.734 32.7844V43.7814C133.734 44.3778 133.496 44.9495 133.074 45.3712C132.652 45.7929 132.08 46.0301 131.483 46.0308Z" fill="#27374D"/>
<path d="M108.47 31.2848C111.233 31.2848 113.473 29.0469 113.473 26.2862C113.473 23.5256 111.233 21.2876 108.47 21.2876C105.707 21.2876 103.467 23.5256 103.467 26.2862C103.467 29.0469 105.707 31.2848 108.47 31.2848Z" fill="#27374D"/>
<path d="M108.47 29.3308C110.153 29.3308 111.517 27.9677 111.517 26.2862C111.517 24.6047 110.153 23.2416 108.47 23.2416C106.787 23.2416 105.423 24.6047 105.423 26.2862C105.423 27.9677 106.787 29.3308 108.47 29.3308Z" fill="white"/>
</g>
<defs>
<clipPath id="clip0_23_3131">
<rect width="162" height="158" fill="white"/>
</clipPath>
</defs>
</svg>
