<svg width="215" height="215" viewBox="0 0 215 215" fill="none" xmlns="http://www.w3.org/2000/svg">
<rect width="215" height="215" fill="#9DB2BF"/>
<path fill-rule="evenodd" clip-rule="evenodd" d="M107.5 96.75C116.053 96.75 124.256 93.3522 130.304 87.3042C136.352 81.2561 139.75 73.0532 139.75 64.5C139.75 55.9468 136.352 47.7439 130.304 41.6958C124.256 35.6478 116.053 32.25 107.5 32.25C98.9468 32.25 90.7439 35.6478 84.6958 41.6958C78.6478 47.7439 75.25 55.9468 75.25 64.5C75.25 73.0532 78.6478 81.2561 84.6958 87.3042C90.7439 93.3522 98.9468 96.75 107.5 96.75V96.75ZM32.25 193.5C32.25 183.618 34.1964 173.833 37.9781 164.703C41.7597 155.573 47.3026 147.278 54.2902 140.29C61.2778 133.303 69.5733 127.76 78.7031 123.978C87.8328 120.196 97.618 118.25 107.5 118.25C117.382 118.25 127.167 120.196 136.297 123.978C145.427 127.76 153.722 133.303 160.71 140.29C167.697 147.278 173.24 155.573 177.022 164.703C180.804 173.833 182.75 183.618 182.75 193.5H32.25Z" fill="#27374D"/>
</svg>
